<mxfile host="Electron" modified="2024-05-13T20:36:24.748Z" agent="Mozilla/5.0 (Macintosh; Intel Mac OS X 10_15_7) AppleWebKit/537.36 (KHTML, like Gecko) draw.io/24.4.0 Chrome/120.0.6099.109 Electron/28.1.0 Safari/537.36" etag="LBubh74XLxuDh4IxSLvK" version="24.4.0" type="device">
  <diagram name="Page-1" id="k99TSKJfoNGT4C4ARBOw">
    <mxGraphModel dx="795" dy="513" grid="1" gridSize="10" guides="1" tooltips="1" connect="1" arrows="1" fold="1" page="1" pageScale="1" pageWidth="827" pageHeight="1169" math="0" shadow="0">
      <root>
        <mxCell id="0" />
        <mxCell id="1" parent="0" />
        <mxCell id="CbytgTAqb2JmNf-wiuoh-12" style="edgeStyle=orthogonalEdgeStyle;rounded=0;orthogonalLoop=1;jettySize=auto;html=1;exitX=1;exitY=0.5;exitDx=0;exitDy=0;entryX=0;entryY=0.5;entryDx=0;entryDy=0;" parent="1" source="CbytgTAqb2JmNf-wiuoh-1" target="CbytgTAqb2JmNf-wiuoh-3" edge="1">
          <mxGeometry relative="1" as="geometry" />
        </mxCell>
        <mxCell id="CbytgTAqb2JmNf-wiuoh-1" value="Processor Load" style="rounded=0;whiteSpace=wrap;html=1;" parent="1" vertex="1">
          <mxGeometry x="240" y="270" width="120" height="30" as="geometry" />
        </mxCell>
        <mxCell id="CbytgTAqb2JmNf-wiuoh-13" style="edgeStyle=orthogonalEdgeStyle;rounded=0;orthogonalLoop=1;jettySize=auto;html=1;exitX=1;exitY=0.5;exitDx=0;exitDy=0;" parent="1" source="CbytgTAqb2JmNf-wiuoh-2" target="CbytgTAqb2JmNf-wiuoh-3" edge="1">
          <mxGeometry relative="1" as="geometry" />
        </mxCell>
        <mxCell id="CbytgTAqb2JmNf-wiuoh-2" value="Memory Usage" style="rounded=0;whiteSpace=wrap;html=1;" parent="1" vertex="1">
          <mxGeometry x="240" y="310" width="120" height="30" as="geometry" />
        </mxCell>
        <mxCell id="CbytgTAqb2JmNf-wiuoh-19" style="edgeStyle=orthogonalEdgeStyle;rounded=0;orthogonalLoop=1;jettySize=auto;html=1;exitX=1;exitY=0.5;exitDx=0;exitDy=0;entryX=0;entryY=0.5;entryDx=0;entryDy=0;" parent="1" source="CbytgTAqb2JmNf-wiuoh-3" target="CbytgTAqb2JmNf-wiuoh-18" edge="1">
          <mxGeometry relative="1" as="geometry" />
        </mxCell>
        <mxCell id="CbytgTAqb2JmNf-wiuoh-3" value="Hardware Resources" style="rounded=0;whiteSpace=wrap;html=1;" parent="1" vertex="1">
          <mxGeometry x="400" y="290" width="120" height="30" as="geometry" />
        </mxCell>
        <mxCell id="CbytgTAqb2JmNf-wiuoh-16" style="edgeStyle=orthogonalEdgeStyle;rounded=0;orthogonalLoop=1;jettySize=auto;html=1;exitX=1;exitY=0.5;exitDx=0;exitDy=0;" parent="1" source="CbytgTAqb2JmNf-wiuoh-4" target="CbytgTAqb2JmNf-wiuoh-6" edge="1">
          <mxGeometry relative="1" as="geometry" />
        </mxCell>
        <mxCell id="CbytgTAqb2JmNf-wiuoh-4" value="Output Throughput" style="rounded=0;whiteSpace=wrap;html=1;" parent="1" vertex="1">
          <mxGeometry x="240" y="360" width="120" height="30" as="geometry" />
        </mxCell>
        <mxCell id="CbytgTAqb2JmNf-wiuoh-17" style="edgeStyle=orthogonalEdgeStyle;rounded=0;orthogonalLoop=1;jettySize=auto;html=1;exitX=1;exitY=0.5;exitDx=0;exitDy=0;" parent="1" source="CbytgTAqb2JmNf-wiuoh-5" target="CbytgTAqb2JmNf-wiuoh-6" edge="1">
          <mxGeometry relative="1" as="geometry" />
        </mxCell>
        <mxCell id="CbytgTAqb2JmNf-wiuoh-5" value="Available Output Bandwidth" style="rounded=0;whiteSpace=wrap;html=1;" parent="1" vertex="1">
          <mxGeometry x="240" y="400" width="120" height="30" as="geometry" />
        </mxCell>
        <mxCell id="aIjLziB07p5wBq-0JNts-3" value="" style="edgeStyle=orthogonalEdgeStyle;rounded=0;orthogonalLoop=1;jettySize=auto;html=1;" edge="1" parent="1" source="CbytgTAqb2JmNf-wiuoh-6" target="CbytgTAqb2JmNf-wiuoh-18">
          <mxGeometry relative="1" as="geometry" />
        </mxCell>
        <mxCell id="CbytgTAqb2JmNf-wiuoh-6" value="Output Congestion" style="rounded=0;whiteSpace=wrap;html=1;" parent="1" vertex="1">
          <mxGeometry x="400" y="380" width="120" height="30" as="geometry" />
        </mxCell>
        <mxCell id="CbytgTAqb2JmNf-wiuoh-21" style="edgeStyle=orthogonalEdgeStyle;rounded=0;orthogonalLoop=1;jettySize=auto;html=1;exitX=1;exitY=0.5;exitDx=0;exitDy=0;entryX=0;entryY=0.5;entryDx=0;entryDy=0;" parent="1" source="CbytgTAqb2JmNf-wiuoh-9" target="CbytgTAqb2JmNf-wiuoh-18" edge="1">
          <mxGeometry relative="1" as="geometry" />
        </mxCell>
        <mxCell id="CbytgTAqb2JmNf-wiuoh-9" value="Input Throughput" style="rounded=0;whiteSpace=wrap;html=1;" parent="1" vertex="1">
          <mxGeometry x="400" y="470" width="120" height="30" as="geometry" />
        </mxCell>
        <mxCell id="CbytgTAqb2JmNf-wiuoh-18" value="Computing Load Percentage" style="rounded=0;whiteSpace=wrap;html=1;" parent="1" vertex="1">
          <mxGeometry x="560" y="380" width="120" height="30" as="geometry" />
        </mxCell>
        <mxCell id="aIjLziB07p5wBq-0JNts-4" style="edgeStyle=orthogonalEdgeStyle;rounded=0;orthogonalLoop=1;jettySize=auto;html=1;exitX=0.5;exitY=1;exitDx=0;exitDy=0;" edge="1" parent="1" source="CbytgTAqb2JmNf-wiuoh-18" target="CbytgTAqb2JmNf-wiuoh-18">
          <mxGeometry relative="1" as="geometry" />
        </mxCell>
      </root>
    </mxGraphModel>
  </diagram>
</mxfile>
